<svg xmlns="http://www.w3.org/2000/svg" viewBox="0 0 180 56" fill="currentColor" class="Icon_logotype__QxI2T color_primary__jHBCr" aria-hidden="true" role="img" focusable="false" style="--Logotype-width: 150px;"><path fill="#fff" d="M81.54 38.539h-4.155l-9.079-9.231h-1.692v9.23h-3.078V17h10.31c4.34 0 6.925 2.308 6.925 6.154s-2.585 6.154-6.925 6.154h-1.539l9.233 9.23Zm-3.847-15.385c0-2.185-1.23-3.539-3.847-3.539h-7.232v7.077h7.232c2.616 0 3.847-1.354 3.847-3.538ZM89.42 39c-4.924 0-8.002-3.661-8.002-8.462 0-4.8 3.078-8.461 7.848-8.461 3.847 0 6.156 2.154 7.171 5.354.37 1.2.523 2.523.523 3.877v.307H84.373c.092 2.585 2 5.077 5.047 5.077 2.616 0 3.817-1.507 4.063-2.615h3.17C95.914 36.692 93.452 39 89.42 39Zm-5.047-9.692h9.633c-.154-2.77-1.631-4.923-4.74-4.923-3.108 0-4.8 2.307-4.893 4.923ZM97.113 25V22.54h3.847v-3.693h2.954v3.693h4.155V25h-4.155v9.693c0 1.077.308 1.446 1.385 1.446h2.77v2.4h-3.385c-2.801 0-3.724-1.385-3.724-3.846V25h-3.847ZM116.563 22.077c4.925 0 8.156 3.661 8.156 8.461 0 4.8-3.231 8.462-8.156 8.462-4.924 0-8.155-3.661-8.155-8.462 0-4.8 3.231-8.461 8.155-8.461Zm0 2.461c-3.354 0-5.201 2.77-5.201 6 0 3.231 1.847 6 5.201 6 3.355 0 5.202-2.769 5.202-6 0-3.23-1.847-6-5.202-6ZM134.18 22.077c4.925 0 8.156 3.661 8.156 8.461 0 4.8-3.231 8.462-8.156 8.462-4.924 0-8.155-3.661-8.155-8.462 0-4.8 3.231-8.461 8.155-8.461Zm0 2.461c-3.354 0-5.201 2.77-5.201 6 0 3.231 1.847 6 5.201 6 3.355 0 5.202-2.769 5.202-6 0-3.23-1.847-6-5.202-6ZM147 17v21.539h-2.955V17H147ZM46.534 18.01c0-.558-.454-1.01-1.015-1.01H34.015c-.56 0-1.015.452-1.015 1.01v4.71c0 .558.455 1.01 1.015 1.01h11.504c.56 0 1.015.452 1.015 1.01v1.346c0 .558-.454 1.01-1.015 1.01h-7.444c-.56 0-1.015.452-1.015 1.01v4.71c0 .558.455 1.01 1.015 1.01h7.444c.56 0 1.015.452 1.015 1.01v2.692c0 .557.454 1.01 1.015 1.01h4.737c.56 0 1.015-.453 1.015-1.01v-4.712c0-.557-.455-1.01-1.015-1.01h-4.737c-.56 0-1.015-.451-1.015-1.009v-1.346c0-.557.454-1.01 1.015-1.01h4.737c.56 0 1.015-.451 1.015-1.009v-4.711c0-.558-.455-1.01-1.015-1.01h-4.737c-.56 0-1.015-.452-1.015-1.01V18.01Z"/></svg>